<svg width="228" height="66" viewBox="0 0 228 66" fill="none" xmlns="http://www.w3.org/2000/svg">
<path d="M105.931 38.01H113.916V41.011H101.811V38.2644L109.745 26.2606H101.811V23.2597H113.916V26.0063L105.931 38.01ZM140.675 23.2597L135.715 41.011H131.519L128.188 28.3714L124.704 41.011L120.533 41.0364L115.752 23.2597H119.566L122.694 37.0436L126.306 23.2597H130.273L133.681 36.9673L136.834 23.2597H140.675ZM146.56 26.1334V30.584H152.536V33.4069H146.56V38.1118H153.299V41.011H142.999V23.2342H153.299V26.1334H146.56ZM160.095 23.2597V41.011H156.535V23.2597H160.095ZM169.818 23.2597C171.683 23.2597 173.319 23.6242 174.727 24.3532C176.151 25.0823 177.244 26.125 178.007 27.4813C178.787 28.8207 179.177 30.3805 179.177 32.1608C179.177 33.941 178.787 35.5008 178.007 36.8402C177.244 38.1626 176.151 39.1884 174.727 39.9174C173.319 40.6465 171.683 41.011 169.818 41.011H163.613V23.2597H169.818ZM169.691 37.9846C171.556 37.9846 172.997 37.476 174.015 36.4587C175.032 35.4414 175.54 34.0088 175.54 32.1608C175.54 30.3127 175.032 28.8716 174.015 27.8374C172.997 26.7862 171.556 26.2606 169.691 26.2606H167.173V37.9846H169.691ZM185.403 26.1334V30.584H191.379V33.4069H185.403V38.1118H192.142V41.011H181.842V23.2342H192.142V26.1334H185.403ZM211.323 23.2597L204.813 41.011H200.49L193.979 23.2597H197.794L202.677 37.3743L207.534 23.2597H211.323ZM219.587 41.189C218.35 41.189 217.231 40.9771 216.23 40.5532C215.247 40.1294 214.467 39.519 213.89 38.7221C213.314 37.9253 213.017 36.9843 213 35.8992H216.815C216.866 36.6283 217.12 37.2047 217.578 37.6286C218.053 38.0524 218.697 38.2644 219.511 38.2644C220.342 38.2644 220.994 38.0694 221.469 37.6794C221.944 37.2725 222.181 36.7469 222.181 36.1027C222.181 35.5771 222.02 35.1447 221.698 34.8057C221.376 34.4666 220.969 34.2038 220.477 34.0173C220.003 33.8138 219.341 33.5934 218.494 33.356C217.341 33.017 216.4 32.6863 215.671 32.3642C214.959 32.0251 214.34 31.525 213.814 30.8637C213.306 30.1856 213.051 29.287 213.051 28.168C213.051 27.1168 213.314 26.2013 213.84 25.4214C214.365 24.6415 215.103 24.048 216.052 23.6411C217.002 23.2173 218.087 23.0053 219.307 23.0053C221.139 23.0053 222.622 23.4546 223.758 24.3532C224.911 25.2349 225.547 26.4725 225.665 28.0663H221.749C221.715 27.4559 221.452 26.9557 220.961 26.5658C220.486 26.1589 219.85 25.9554 219.053 25.9554C218.358 25.9554 217.798 26.1334 217.375 26.4895C216.968 26.8455 216.764 27.3626 216.764 28.0408C216.764 28.5155 216.917 28.914 217.222 29.2361C217.544 29.5413 217.934 29.7956 218.392 29.9991C218.867 30.1856 219.528 30.406 220.376 30.6603C221.528 30.9994 222.469 31.3385 223.198 31.6776C223.928 32.0166 224.555 32.5253 225.08 33.2035C225.606 33.8816 225.869 34.7717 225.869 35.8738C225.869 36.8232 225.623 37.7049 225.131 38.5187C224.64 39.3325 223.919 39.9852 222.97 40.4769C222.02 40.9516 220.893 41.189 219.587 41.189Z" fill="#2B2A35"/>
<path fill-rule="evenodd" clip-rule="evenodd" d="M71.778 39.6713L68.2738 38.8832C68.7409 36.8049 68.9781 34.6605 68.9781 32.5096C68.9781 24.7854 65.97 17.5233 60.5081 12.0615C55.0463 6.5998 47.7843 3.59157 40.06 3.59157C35.3345 3.59157 30.6467 4.75617 26.5036 6.95918C22.4904 9.09325 18.9862 12.1925 16.3699 15.9213L13.4297 13.8586C16.3692 9.66887 20.3069 6.18654 24.8175 3.78802C29.4776 1.30983 34.7485 0 40.06 0C44.4481 0 48.7057 0.859844 52.7149 2.55542C56.5863 4.19299 60.0628 6.5367 63.0477 9.52195C66.0329 12.5068 68.3766 15.9833 70.0142 19.8548C71.71 23.8639 72.5696 28.1217 72.5696 32.5096C72.5696 34.9251 72.3033 37.3347 71.778 39.6713Z" fill="#FF9700"/>
<path fill-rule="evenodd" clip-rule="evenodd" d="M40.0602 65.0193C35.6723 65.0193 31.4147 64.1594 27.4056 62.4637C23.5341 60.8261 20.0576 58.4824 17.0725 55.4973C14.0875 52.5125 11.7438 49.036 10.1062 45.1643C8.41063 41.1554 7.55078 36.8976 7.55078 32.5097C7.55078 29.9798 7.84273 27.4595 8.41854 25.0186L11.9142 25.8432C11.4021 28.0142 11.1423 30.2571 11.1423 32.5097C11.1423 40.2339 14.1504 47.4958 19.6121 52.9577C25.0743 58.4195 32.3361 61.4275 40.0602 61.4275C44.7407 61.4275 49.3882 60.2842 53.5011 58.1211C57.4843 56.0262 60.9764 52.9794 63.6002 49.31L66.5218 51.3991C63.5738 55.5218 59.6494 58.9458 55.173 61.3C50.5468 63.7332 45.321 65.0193 40.0602 65.0193Z" fill="#FF9700"/>
<path fill-rule="evenodd" clip-rule="evenodd" d="M0 17.1436V23.0557H41.1469L24.286 42.6757V47.8H79.97V41.8875H32.9572L49.8182 22.2674V17.1436H0Z" fill="#2B2A35"/>
</svg>
