<svg width="80" height="66" viewBox="0 0 80 66" fill="none" xmlns="http://www.w3.org/2000/svg">
<path fill-rule="evenodd" clip-rule="evenodd" d="M71.778 39.6713L68.2738 38.8832C68.7409 36.8049 68.9781 34.6605 68.9781 32.5096C68.9781 24.7854 65.97 17.5233 60.5081 12.0615C55.0463 6.5998 47.7843 3.59157 40.06 3.59157C35.3345 3.59157 30.6467 4.75617 26.5036 6.95918C22.4904 9.09325 18.9862 12.1925 16.3699 15.9213L13.4297 13.8586C16.3692 9.66887 20.3069 6.18654 24.8175 3.78802C29.4776 1.30983 34.7485 0 40.06 0C44.4481 0 48.7057 0.859844 52.7149 2.55542C56.5863 4.19299 60.0628 6.5367 63.0477 9.52195C66.0329 12.5068 68.3766 15.9833 70.0142 19.8548C71.71 23.8639 72.5696 28.1217 72.5696 32.5096C72.5696 34.9251 72.3033 37.3347 71.778 39.6713Z" fill="#FF9700"/>
<path fill-rule="evenodd" clip-rule="evenodd" d="M40.0602 65.0193C35.6723 65.0193 31.4147 64.1594 27.4056 62.4637C23.5341 60.8261 20.0576 58.4824 17.0725 55.4973C14.0875 52.5125 11.7438 49.036 10.1062 45.1643C8.41063 41.1554 7.55078 36.8976 7.55078 32.5097C7.55078 29.9798 7.84273 27.4595 8.41854 25.0186L11.9142 25.8432C11.4021 28.0142 11.1423 30.2571 11.1423 32.5097C11.1423 40.2339 14.1504 47.4958 19.6121 52.9577C25.0743 58.4195 32.3361 61.4275 40.0602 61.4275C44.7407 61.4275 49.3882 60.2842 53.5011 58.1211C57.4843 56.0262 60.9764 52.9794 63.6002 49.31L66.5218 51.3991C63.5738 55.5218 59.6494 58.9458 55.173 61.3C50.5468 63.7332 45.321 65.0193 40.0602 65.0193Z" fill="#FF9700"/>
<path fill-rule="evenodd" clip-rule="evenodd" d="M0 17.1436V23.0557H41.1469L24.286 42.6757V47.8H79.97V41.8875H32.9572L49.8182 22.2674V17.1436H0Z" fill="#2B2A35"/>
</svg>
