<svg width="472" height="390" viewBox="0 0 472 390" fill="none" xmlns="http://www.w3.org/2000/svg">
<path d="M423.019 238.447L424.483 238.776L424.812 237.312C427.934 223.422 429.517 209.1 429.517 194.743C429.517 168.664 424.407 143.353 414.327 119.52C404.593 96.5074 390.66 75.8413 372.917 58.1005C355.176 40.3573 334.51 26.4248 311.497 16.6907L310.915 18.0684L311.497 16.6907C287.665 6.61129 262.355 1.50024 236.274 1.50024C204.703 1.50024 173.373 9.28518 145.669 24.0178C118.857 38.2755 95.4521 58.9731 77.9795 83.8777L77.118 85.1056L78.346 85.9671L95.6876 98.1329L96.9155 98.9943L97.777 97.7665C113.072 75.9663 133.561 57.8458 157.022 45.3702C181.24 32.4929 208.647 25.6835 236.274 25.6835C281.434 25.6835 323.885 43.2681 355.817 75.2004L356.878 74.1398L355.817 75.2004C387.751 107.133 405.334 149.583 405.334 194.743C405.334 207.319 403.947 219.857 401.217 232.006L400.888 233.469L402.351 233.799L423.019 238.447Z" fill="url(#paint0_linear_48_440)" stroke="url(#paint1_linear_48_440)" stroke-width="3"/>
<path d="M58.2225 269.966L59.604 269.381L58.2225 269.966C67.9565 292.98 81.889 313.646 99.6311 331.387C117.373 349.129 138.039 363.061 161.052 372.795C184.884 382.876 210.195 387.987 236.274 387.987C267.544 387.987 298.606 380.343 326.108 365.878C352.718 351.883 376.043 331.533 393.566 307.027L394.438 305.807L393.218 304.934L375.986 292.613L374.766 291.74L373.894 292.961C358.554 314.413 338.136 332.227 314.851 344.474C290.809 357.117 263.638 363.802 236.274 363.802C191.115 363.802 148.666 346.219 116.731 314.287C84.7987 282.353 67.2152 239.904 67.2152 194.744C67.2152 181.573 68.734 168.459 71.7277 155.769L72.0721 154.309L70.6122 153.965L49.9945 149.101L48.5345 148.756L48.1901 150.216C44.7672 164.727 43.032 179.708 43.032 194.744C43.032 220.823 48.1431 246.134 58.2225 269.966Z" fill="url(#paint2_linear_48_440)" stroke="url(#paint3_linear_48_440)" stroke-width="3"/>
<path fill-rule="evenodd" clip-rule="evenodd" d="M0 104.113V138.983H242.686L143.24 254.703V284.926H471.667V250.054H194.383L293.83 134.334V104.113H0Z" fill="white"/>
<defs>
<linearGradient id="paint0_linear_48_440" x1="253.612" y1="3.00024" x2="253.612" y2="236.983" gradientUnits="userSpaceOnUse">
<stop stop-color="#FF9700"/>
<stop offset="1" stop-color="#FF9700" stop-opacity="0.8"/>
</linearGradient>
<linearGradient id="paint1_linear_48_440" x1="253.612" y1="3.00024" x2="253.612" y2="236.983" gradientUnits="userSpaceOnUse">
<stop stop-color="#FF9700"/>
<stop offset="1" stop-color="#FF9700" stop-opacity="0.8"/>
</linearGradient>
<linearGradient id="paint2_linear_48_440" x1="218.439" y1="150.561" x2="218.439" y2="386.487" gradientUnits="userSpaceOnUse">
<stop stop-color="#FF9700"/>
<stop offset="1" stop-color="#FF9700" stop-opacity="0.8"/>
</linearGradient>
<linearGradient id="paint3_linear_48_440" x1="218.439" y1="150.561" x2="218.439" y2="386.487" gradientUnits="userSpaceOnUse">
<stop stop-color="#FF9700"/>
<stop offset="1" stop-color="#FF9700" stop-opacity="0.8"/>
</linearGradient>
</defs>
</svg>
